<?xml version="1.0" encoding="UTF-8"?> <svg xmlns="http://www.w3.org/2000/svg" xmlns:xlink="http://www.w3.org/1999/xlink" viewBox="0 0 800.45 403.66"><defs><style>.cls-1{isolation:isolate;}.cls-2,.cls-5{opacity:0.35;}.cls-3{fill:#a8a8a8;}.cls-4{fill:#3f3f3f;}.cls-5{mix-blend-mode:multiply;fill:url(#radial-gradient);}.cls-6{fill:#171717;}.cls-17,.cls-18,.cls-20,.cls-22,.cls-23,.cls-25,.cls-7,.cls-8{fill:none;}.cls-17,.cls-20,.cls-23,.cls-7,.cls-8,.cls-9{stroke:#051c2c;}.cls-10,.cls-13,.cls-17,.cls-18,.cls-19,.cls-20,.cls-22,.cls-23,.cls-25,.cls-7,.cls-8,.cls-9{stroke-miterlimit:10;}.cls-17,.cls-18,.cls-7,.cls-8,.cls-9{stroke-width:0.75px;}.cls-18,.cls-7{stroke-dasharray:1 3;}.cls-8{stroke-linecap:round;}.cls-21,.cls-9{fill:#fff;}.cls-10,.cls-12,.cls-13,.cls-24{fill:#1b54f8;}.cls-10,.cls-13,.cls-19{stroke:#fff;}.cls-10,.cls-19{stroke-width:0.5px;}.cls-11,.cls-19,.cls-28{fill:#051c2c;}.cls-13{stroke-width:0.25px;}.cls-14{opacity:0.43;}.cls-14,.cls-15,.cls-16{font-size:12px;}.cls-14,.cls-16{font-family:OpenSans-SemiBold, Open Sans;font-weight:600;}.cls-15{font-family:OpenSans-Regular, Open Sans;}.cls-17{stroke-dasharray:4 4;}.cls-18{stroke:url(#linear-gradient);}.cls-22,.cls-25{stroke:#000;}.cls-23,.cls-24,.cls-25,.cls-26{opacity:0.21;}.cls-27{fill:url(#linear-gradient-2);}.cls-28{font-size:14px;font-family:Georgia;}</style><radialGradient id="radial-gradient" cx="3166.08" cy="1076.12" r="92.53" gradientTransform="translate(1533.2 662.3) rotate(90) scale(0.05 1.06)" gradientUnits="userSpaceOnUse"><stop offset="0.02" stop-color="#6d6d6d"></stop><stop offset="0.16" stop-color="#939393"></stop><stop offset="0.34" stop-color="#b9b9b9"></stop><stop offset="0.51" stop-color="#d8d8d8"></stop><stop offset="0.68" stop-color="#eee"></stop><stop offset="0.85" stop-color="#fbfbfb"></stop><stop offset="1" stop-color="#fff"></stop></radialGradient><linearGradient id="linear-gradient" x1="123.09" y1="325.26" x2="123.09" y2="226.66" gradientUnits="userSpaceOnUse"><stop offset="0"></stop><stop offset="0.99" stop-color="#005b97" stop-opacity="0"></stop></linearGradient><linearGradient id="linear-gradient-2" x1="217.38" y1="363.2" x2="216.84" y2="419.82" gradientUnits="userSpaceOnUse"><stop offset="0" stop-color="#fff" stop-opacity="0"></stop><stop offset="0.47" stop-color="#fff"></stop></linearGradient></defs><g class="cls-1"><g id="Layer_1" data-name="Layer 1"><g class="cls-2"><path class="cls-3" d="M376.45,795.75h0l-23.16-4.56a.06.06,0,0,1,0-.1l1.17-2-20.88-6.26h0L307.66,763.8h0l-21.1-28.32a.06.06,0,0,1,0-.07s0,0,.07,0l5.24.17-15.42-27.58a.06.06,0,0,1,0,0h0v0l16.24-55.28-18.46,19.85a.08.08,0,0,1-.09,0,.08.08,0,0,1,0-.08l6.1-27.74a0,0,0,0,1,0,0h0l26.64-43.07h0l27.21-19.14h0l31.18-11.26h0l36.65-1h0l27.74,6.32h0l19.11,10.9h0l21.64,18.23h0l18.05,26.07h0l6.09,15.59a.07.07,0,0,1,0,.08.06.06,0,0,1-.09,0l-6-6.56-.06,12.24,9.42,4.3a.1.1,0,0,1,0,0l2.68,19.86v0h0l-7.15,30.16,4,2.19s0,.05,0,.09L486,738.57h0L465.82,765h0l-24,17.35h0l-26.32,10.45a.06.06,0,0,1-.08,0l-2.42-4.5-9.88,2-1.63,5.12a.08.08,0,0,1-.07.05l-24.89.29Zm26.43-5.43-25.69,5.28,24.1-.28Zm-48.26-1.27,21.74,6.53-2.83-18.68-12.72,1.84Zm49.8-16.59-27.71,23.09,26.22-5.38L407,777.33Zm-30.75,4.42,2.83,18.66,27.7-23.08ZM353.4,791.07,375,795.33l-20.49-6.16Zm59.66-2.84,2.37,4.4,25.51-10.12Zm-5.93-10.73-4,12.63,9.76-2Zm-73.27,5.32L354.48,789l6.15-10.25-9.15,1.33h0Zm73.33-5.51L413,788.1l28.42-5.83-33-8.79Zm-78.4-5.65,4.8,11.06,17.6-2.73ZM308.15,764l25.22,18.59-4.77-11Zm100.31,9.36,33.12,8.82-7.16-13.37-25.49,3.08Zm36.79-5.87-3.42,14.63L465.5,765Zm-10.67,1.3,7.11,13.3,3.41-14.58Zm-88.89-18.45,5.83,29.61,9.2-1.33,10.4-17.32Zm-17,21.15,22.66,8.43-5.83-29.65-32-13.81Zm42.47-10L360.9,778.58l12.6-1.82Zm33.4,11,2.52,4.68,1.18-3.69Zm-33.27-11.1,2.33,15.38,30.49-4.42Zm33.51,11,3.5.93.45-1.41Zm13.8-31.29-14.06,31.18,4.26-.52Zm-47.2,20.15,32.86,11-12.59-20Zm20.4-9.09,12.61,20.05,14.49-32.13Zm27.26-12L409,771.73l25.38-3.07ZM307.78,763.7l20.74,7.71-15.13-34.87Zm111.46-23.6,15.26,28.54,10.63-1.28,2.78-11.91ZM448,755.52l-2.76,11.82,20.25-2.45Zm0-.14,17.61,9.43-1.24-25.75-12.62.26Zm16.51-16.32,1.23,25.52,9.53-25.74Zm10.91-.23L466,764.51l19.84-25.89Zm-183.42-3.16,15.5,27.71-3.65-27.31Zm12,.4,3.64,27.25,5.57-26.94Zm-17.33-.58,20.36,27.34-15.18-27.16Zm58.92,14.67,25.51,11,6.52-31.09-35.3,3.47Zm32.16-20-6.5,31,20.29-9ZM419.34,740,448,755.31l3.74-16Zm-41.4-9.9L391.74,752,418.84,740Zm-64.29,6.26,31.85,13.74-3.25-16.55Zm148.58-42.13-43,45.63,32.49-.67Zm-84.35,35.71,41.08,9.9L400.2,683.07Zm22.43-47,18.75,56.72L434.26,689Zm34.09,6.09-15.18,50.6,43-45.64Zm27.91,5.43-10.44,44.69,12.57-.26Zm.14-.2,2.14,44.63,10.81-.23L479.75,727Zm17.39,32.83-4.29,11.57,10.31-.21Zm.07-.18,6,11.35L488,705.13Zm8.24-22.17-2,33,7.16-30.19Zm5.24,2.83-7.12,30,11.08-27.87ZM304.05,735.93l9.1.3-10.1-7.77Zm30.34-42.31-20.9,42.61,28.73-2.83ZM303,728.26l10.26,7.9-1.23-37.09-12.52,3.13ZM312.2,699l1.23,37,20.86-42.51ZM292,735.53l11.91.39-1-7.58-26.18-20.17Zm42.53-41.94,7.83,39.8,35.25-3.47Zm.05-.14,43.18,36.42L400.09,683Zm-57.94,14.49,26.23,20.2-3.46-25.9Zm185.88-13.82,17.3,32.65L488,704.69ZM292.78,652.67l-16.2,55.13,22.81-5.7Zm195.39,52,5.13,2.77,7-29.41ZM462.54,694,488,704.55l.12-21.77Zm25.73-11.25-.12,21.6,12.22-26.9Zm-195.36-30.2,6.62,49.54,12.52-3.13-.94-28.44Zm18.34,18.12.94,28.25,22.09-5.52Zm123.19,18.28,27.77,5-19.75-31.67ZM481,649.81l-18.49,44,25.64-11.22.16-29.47Zm-30.56-13.95,12,57.88,18.47-44ZM442.51,662l19.7,31.57L450.31,636Zm-62.38-9.71-45.49,41,65.45-10.48Zm-68.88,18.11,23.11,22.82,3.38-45-27.29-1.69Zm26.63-22.16-3.38,45,45.55-41-5.31-8.13Zm62.48,34.56,33.94,6.06,8.06-26.84L435,650.25Zm17.83-59.51-17.84,59.32,34.57-32.51Zm-26.75,18.82,8.78,40.45L418,623.33Zm97,11.07-.16,29.35,12.16-5.32-2.67-19.77Zm-108.19-1,19.82,30.3-8.74-40.28Zm-99.95-7.48-6,27.43,18.48-19.88,1.86-6.67Zm12.61,7.58,18.2,18-.79-23.69-13.69-.85Zm142.2-2.17,7.31,11.72,7.77-25.9Zm45.93-.47,7.26,3.31.07-12.33L485.93,638ZM374.9,644.05l5.26,8.05,11-9.9Zm-80.16,1.58L293,651.79l3.43-6.06ZM418.35,623.3,435,650l15.16-14.27Zm32.24,12.48,30.31,13.84,4.92-11.73L481,632.6ZM310.45,646.45l27.16,1.68-27.94-25.27Zm47.76-27.63L338,648.12l36.69-4.18Zm-48.45,3.93,28,25.29-1.54-27.47Zm26.57-2.19L337.87,648l20.2-29.23ZM488.5,640.61l5.87,6.39-5.82-14.89Zm-191.8,5,13.61.84L309.53,623Zm-1.92-.11,1.76.1L309.36,623l-10.51,7.87Zm-14.35-.89,14.2.88,4-14.52Zm26.25-42.55-26.19,42.33,18.23-13.64ZM358.48,619l16.33,25,16.36-1.86Zm25.06,1.69L391.39,642,418,623.21Zm-25.07-1.87,32.74,23.14-7.82-21.29ZM486,637.86l2.37,2.59.05-8.35Zm-4.85-5.28,4.74,5.17,2.49-5.92Zm-16.63-17.93-14,21,30.38-3.18Zm-46.21,8.47,31.94,12.51-5.38-39.14ZM445,596.51l5.37,39,14-21-8.15-8.88Zm19.59,18L481,632.45l7.28-.76-22.8-18.53Zm1-1.48,22.56,18.32L470.43,605.8ZM306.86,602l-7.95,28.65,10.6-7.94Zm76.63,18.55,34.56,2.57L397.9,583l-21.17,19.08ZM398,583l20.11,40,9.21-37.34Zm29.47,2.62-9.21,37.3,26.51-26.59-7.58-9.84Zm-92.66,11.19-25.08,25.8,26.41-2.18ZM307,601.65l2.67,20.83,14.54-23.87Zm17.4-3.07L310,622.19l24.73-25.44Zm34,20,24.95,1.86-6.73-18.28ZM335,596.82l1.33,23.6,21.73-1.79Zm0-.17,23.15,21.89L363.45,583l-20,6.61ZM363.6,583l-5.28,35.55,18.24-16.44-7.67-20.85ZM457,606.27l7.47,8.15.9-1.35Zm-.66-.72,9.11,7.41,4.85-7.25-20.79-7.6Zm-7-7.67,20.75,7.59-21.26-17.91-2.88,6.61Zm-4-1.33,10.33,8.39L449.24,598ZM369,581.16l7.64,20.8,21.11-19-16.34-5.87Zm-35.16,1.54-26.55,18.67,19-6.26Zm-7.67,12.59-18.36,6.06,16.43-2.9Zm.2-.07-1.94,3.2,10.38-1.84-.23-4.06ZM445,596.3l4,1.47-3.16-3.45Zm-110.25-3.83.23,4,8.07-6.77Zm102.68-6,7.46,9.69.87-2-6.94-7.57Zm-103.38-3.83L326.52,595l8.08-2.67Zm105,4,6.79,7.41,2.86-6.55Zm-104.85-4.16.56,9.83,8.6-2.83,21.59-18.1Zm31-11.13-21.48,18,19.77-6.53Zm73.7,15.13,9.57.86L430,576.84Zm-1.58-.14,1.37.13-7.94-8.66Zm-9.77-.87,9.58.86-7.41-9.63Zm-29.12-2.59,29,2.58,2.18-8.83ZM381.66,577l16.21,5.82,3.95-12.48ZM402,570.32l-4,12.5,31.31-6.27Zm-36.67,1.15-1.68,11.32,5.21-1.72Zm.09-.17L369,581l12.24-4Zm.26,0,15.78,5.67,20-6.6Z" transform="translate(-268.85 -523.34)"></path><path class="cls-3" d="M359,618.69a.81.81,0,0,0-.81-.81.81.81,0,1,0,0,1.62A.81.81,0,0,0,359,618.69Z" transform="translate(-268.85 -523.34)"></path><path class="cls-3" d="M489.29,631.74a.81.81,0,1,0-.81.81A.81.81,0,0,0,489.29,631.74Z" transform="translate(-268.85 -523.34)"></path><path class="cls-3" d="M495.38,647.33a.81.81,0,1,0-.81.81A.81.81,0,0,0,495.38,647.33Z" transform="translate(-268.85 -523.34)"></path><path class="cls-3" d="M430.48,576.55a.81.81,0,1,0-.81.81A.81.81,0,0,0,430.48,576.55Z" transform="translate(-268.85 -523.34)"></path><path class="cls-3" d="M402.75,570.23a.82.82,0,1,0-.82.82A.82.82,0,0,0,402.75,570.23Z" transform="translate(-268.85 -523.34)"></path><path class="cls-3" d="M307.7,601.59a.82.82,0,1,0-.81.81A.81.81,0,0,0,307.7,601.59Z" transform="translate(-268.85 -523.34)"></path><path class="cls-3" d="M293.62,652.33a.81.81,0,1,0-.81.81A.81.81,0,0,0,293.62,652.33Z" transform="translate(-268.85 -523.34)"></path><path class="cls-3" d="M310.4,622.69a.81.81,0,0,0-1.62,0,.81.81,0,1,0,1.62,0Z" transform="translate(-268.85 -523.34)"></path><path class="cls-3" d="M314.18,736.31a.82.82,0,1,0-.81.81A.81.81,0,0,0,314.18,736.31Z" transform="translate(-268.85 -523.34)"></path><path class="cls-3" d="M372,761.25a.81.81,0,1,0-1.62,0,.81.81,0,1,0,1.62,0Z" transform="translate(-268.85 -523.34)"></path><path class="cls-3" d="M378.59,730a.81.81,0,1,0-.81.81A.81.81,0,0,0,378.59,730Z" transform="translate(-268.85 -523.34)"></path><path class="cls-3" d="M314.18,736.31a.82.82,0,1,0-.81.81A.81.81,0,0,0,314.18,736.31Z" transform="translate(-268.85 -523.34)"></path><path class="cls-3" d="M335.23,693.4a.81.81,0,1,0-.81.82A.81.81,0,0,0,335.23,693.4Z" transform="translate(-268.85 -523.34)"></path><path class="cls-3" d="M352.28,780a.82.82,0,1,0-.81.81A.81.81,0,0,0,352.28,780Z" transform="translate(-268.85 -523.34)"></path><path class="cls-3" d="M405.25,772.35a.81.81,0,1,0-.81.81A.81.81,0,0,0,405.25,772.35Z" transform="translate(-268.85 -523.34)"></path><path class="cls-3" d="M377.26,795.68a.81.81,0,1,0-.81.81A.82.82,0,0,0,377.26,795.68Z" transform="translate(-268.85 -523.34)"></path><path class="cls-3" d="M372,761.25a.81.81,0,1,0-1.62,0,.81.81,0,1,0,1.62,0Z" transform="translate(-268.85 -523.34)"></path><path class="cls-3" d="M354.1,791.12a.81.81,0,1,0-1.62,0,.81.81,0,1,0,1.62,0Z" transform="translate(-268.85 -523.34)"></path><path class="cls-3" d="M377.26,795.68a.81.81,0,1,0-.81.81A.82.82,0,0,0,377.26,795.68Z" transform="translate(-268.85 -523.34)"></path><path class="cls-3" d="M334.35,782.8a.81.81,0,1,0-.81.81A.81.81,0,0,0,334.35,782.8Z" transform="translate(-268.85 -523.34)"></path><path class="cls-3" d="M352.28,780a.82.82,0,1,0-.81.81A.81.81,0,0,0,352.28,780Z" transform="translate(-268.85 -523.34)"></path><path class="cls-3" d="M308.51,763.74a.82.82,0,1,0-.81.81A.81.81,0,0,0,308.51,763.74Z" transform="translate(-268.85 -523.34)"></path><path class="cls-3" d="M334.35,782.8a.81.81,0,1,0-.81.81A.81.81,0,0,0,334.35,782.8Z" transform="translate(-268.85 -523.34)"></path><path class="cls-3" d="M314.18,736.31a.82.82,0,1,0-.81.81A.81.81,0,0,0,314.18,736.31Z" transform="translate(-268.85 -523.34)"></path><path class="cls-3" d="M308.51,763.74a.82.82,0,1,0-.81.81A.81.81,0,0,0,308.51,763.74Z" transform="translate(-268.85 -523.34)"></path><path class="cls-3" d="M287.41,735.42a.82.82,0,1,0-.81.81A.81.81,0,0,0,287.41,735.42Z" transform="translate(-268.85 -523.34)"></path><path class="cls-3" d="M314.18,736.31a.82.82,0,1,0-.81.81A.81.81,0,0,0,314.18,736.31Z" transform="translate(-268.85 -523.34)"></path><path class="cls-3" d="M277.29,707.9a.81.81,0,1,0-.81.81A.81.81,0,0,0,277.29,707.9Z" transform="translate(-268.85 -523.34)"></path><path class="cls-3" d="M308.51,763.74a.82.82,0,1,0-.81.81A.81.81,0,0,0,308.51,763.74Z" transform="translate(-268.85 -523.34)"></path><path class="cls-3" d="M293.62,652.33a.81.81,0,1,0-.81.81A.81.81,0,0,0,293.62,652.33Z" transform="translate(-268.85 -523.34)"></path><path class="cls-3" d="M335.23,693.4a.81.81,0,1,0-.81.82A.81.81,0,0,0,335.23,693.4Z" transform="translate(-268.85 -523.34)"></path><path class="cls-3" d="M277.29,707.9a.81.81,0,1,0-.81.81A.81.81,0,0,0,277.29,707.9Z" transform="translate(-268.85 -523.34)"></path><path class="cls-3" d="M293.62,652.33a.81.81,0,1,0-.81.81A.81.81,0,0,0,293.62,652.33Z" transform="translate(-268.85 -523.34)"></path><path class="cls-3" d="M275,672.41a.81.81,0,1,0-.81.81A.82.82,0,0,0,275,672.41Z" transform="translate(-268.85 -523.34)"></path><path class="cls-3" d="M281.05,644.66a.81.81,0,0,0-.81-.81.81.81,0,1,0,0,1.62A.81.81,0,0,0,281.05,644.66Z" transform="translate(-268.85 -523.34)"></path><path class="cls-3" d="M338.62,648.21a.81.81,0,1,0-.81.81A.81.81,0,0,0,338.62,648.21Z" transform="translate(-268.85 -523.34)"></path><path class="cls-3" d="M335.23,693.4a.81.81,0,1,0-.81.82A.81.81,0,0,0,335.23,693.4Z" transform="translate(-268.85 -523.34)"></path><path class="cls-3" d="M378.59,730a.81.81,0,1,0-.81.81A.81.81,0,0,0,378.59,730Z" transform="translate(-268.85 -523.34)"></path><path class="cls-3" d="M405.25,772.35a.81.81,0,1,0-.81.81A.81.81,0,0,0,405.25,772.35Z" transform="translate(-268.85 -523.34)"></path><path class="cls-3" d="M372,761.25a.81.81,0,1,0-1.62,0,.81.81,0,1,0,1.62,0Z" transform="translate(-268.85 -523.34)"></path><path class="cls-3" d="M419.88,739.93a.82.82,0,1,0-.82.81A.82.82,0,0,0,419.88,739.93Z" transform="translate(-268.85 -523.34)"></path><path class="cls-3" d="M378.59,730a.81.81,0,1,0-.81.81A.81.81,0,0,0,378.59,730Z" transform="translate(-268.85 -523.34)"></path><path class="cls-3" d="M401,682.88a.81.81,0,1,0-.81.81A.81.81,0,0,0,401,682.88Z" transform="translate(-268.85 -523.34)"></path><path class="cls-3" d="M335.23,693.4a.81.81,0,1,0-.81.82A.81.81,0,0,0,335.23,693.4Z" transform="translate(-268.85 -523.34)"></path><path class="cls-3" d="M392.17,642.11a.81.81,0,1,0-.81.81A.82.82,0,0,0,392.17,642.11Z" transform="translate(-268.85 -523.34)"></path><path class="cls-3" d="M338.62,648.21a.81.81,0,1,0-.81.81A.81.81,0,0,0,338.62,648.21Z" transform="translate(-268.85 -523.34)"></path><path class="cls-3" d="M310.4,622.69a.81.81,0,0,0-1.62,0,.81.81,0,1,0,1.62,0Z" transform="translate(-268.85 -523.34)"></path><path class="cls-3" d="M281.05,644.66a.81.81,0,0,0-.81-.81.81.81,0,1,0,0,1.62A.81.81,0,0,0,281.05,644.66Z" transform="translate(-268.85 -523.34)"></path><path class="cls-3" d="M307.7,601.59a.82.82,0,1,0-.81.81A.81.81,0,0,0,307.7,601.59Z" transform="translate(-268.85 -523.34)"></path><path class="cls-3" d="M310.4,622.69a.81.81,0,0,0-1.62,0,.81.81,0,1,0,1.62,0Z" transform="translate(-268.85 -523.34)"></path><path class="cls-3" d="M359,618.69a.81.81,0,0,0-.81-.81.81.81,0,1,0,0,1.62A.81.81,0,0,0,359,618.69Z" transform="translate(-268.85 -523.34)"></path><path class="cls-3" d="M338.62,648.21a.81.81,0,1,0-.81.81A.81.81,0,0,0,338.62,648.21Z" transform="translate(-268.85 -523.34)"></path><path class="cls-3" d="M335.73,596.64a.82.82,0,1,0-.82.82A.82.82,0,0,0,335.73,596.64Z" transform="translate(-268.85 -523.34)"></path><path class="cls-3" d="M310.4,622.69a.81.81,0,0,0-1.62,0,.81.81,0,1,0,1.62,0Z" transform="translate(-268.85 -523.34)"></path><path class="cls-3" d="M334.92,582.44a.82.82,0,1,0-.82.82A.82.82,0,0,0,334.92,582.44Z" transform="translate(-268.85 -523.34)"></path><path class="cls-3" d="M307.7,601.59a.82.82,0,1,0-.81.81A.81.81,0,0,0,307.7,601.59Z" transform="translate(-268.85 -523.34)"></path><path class="cls-3" d="M335.73,596.64a.82.82,0,1,0-.82.82A.82.82,0,0,0,335.73,596.64Z" transform="translate(-268.85 -523.34)"></path><path class="cls-3" d="M334.92,582.44a.82.82,0,1,0-.82.82A.82.82,0,0,0,334.92,582.44Z" transform="translate(-268.85 -523.34)"></path><path class="cls-3" d="M366.1,571.19a.82.82,0,1,0-.82.81A.82.82,0,0,0,366.1,571.19Z" transform="translate(-268.85 -523.34)"></path><path class="cls-3" d="M335.73,596.64a.82.82,0,1,0-.82.82A.82.82,0,0,0,335.73,596.64Z" transform="translate(-268.85 -523.34)"></path><path class="cls-3" d="M359,618.69a.81.81,0,0,0-.81-.81.81.81,0,1,0,0,1.62A.81.81,0,0,0,359,618.69Z" transform="translate(-268.85 -523.34)"></path><path class="cls-3" d="M401,682.88a.81.81,0,1,0-.81.81A.81.81,0,0,0,401,682.88Z" transform="translate(-268.85 -523.34)"></path><path class="cls-3" d="M419.88,739.93a.82.82,0,1,0-.82.81A.82.82,0,0,0,419.88,739.93Z" transform="translate(-268.85 -523.34)"></path><path class="cls-3" d="M402.15,795.39a.81.81,0,1,0-1.62,0,.81.81,0,0,0,1.62,0Z" transform="translate(-268.85 -523.34)"></path><path class="cls-3" d="M377.26,795.68a.81.81,0,1,0-.81.81A.82.82,0,0,0,377.26,795.68Z" transform="translate(-268.85 -523.34)"></path><circle class="cls-3" cx="172.86" cy="258.94" r="0.81"></circle><path class="cls-3" d="M419.88,739.93a.82.82,0,1,0-.82.81A.82.82,0,0,0,419.88,739.93Z" transform="translate(-268.85 -523.34)"></path><path class="cls-3" d="M405.25,772.35a.81.81,0,1,0-.81.81A.81.81,0,0,0,405.25,772.35Z" transform="translate(-268.85 -523.34)"></path><path class="cls-3" d="M416.21,792.72a.81.81,0,1,0-.81.82A.81.81,0,0,0,416.21,792.72Z" transform="translate(-268.85 -523.34)"></path><circle class="cls-3" cx="172.86" cy="258.94" r="0.81"></circle><path class="cls-3" d="M405.25,772.35a.81.81,0,1,0-.81.81A.81.81,0,0,0,405.25,772.35Z" transform="translate(-268.85 -523.34)"></path><path class="cls-3" d="M466.58,764.93a.82.82,0,0,0-.82-.81.81.81,0,1,0,0,1.62A.82.82,0,0,0,466.58,764.93Z" transform="translate(-268.85 -523.34)"></path><path class="cls-3" d="M463.17,694a.81.81,0,1,0-.81.81A.82.82,0,0,0,463.17,694Z" transform="translate(-268.85 -523.34)"></path><circle class="cls-3" cx="172.86" cy="258.94" r="0.81"></circle><path class="cls-3" d="M466.58,764.93a.82.82,0,0,0-.82-.81.81.81,0,1,0,0,1.62A.82.82,0,0,0,466.58,764.93Z" transform="translate(-268.85 -523.34)"></path><path class="cls-3" d="M419.88,739.93a.82.82,0,1,0-.82.81A.82.82,0,0,0,419.88,739.93Z" transform="translate(-268.85 -523.34)"></path><path class="cls-3" d="M486.79,738.55a.81.81,0,1,0-.81.81A.81.81,0,0,0,486.79,738.55Z" transform="translate(-268.85 -523.34)"></path><path class="cls-3" d="M466.58,764.93a.82.82,0,0,0-.82-.81.81.81,0,1,0,0,1.62A.82.82,0,0,0,466.58,764.93Z" transform="translate(-268.85 -523.34)"></path><path class="cls-3" d="M488.89,704.65a.81.81,0,1,0-.81.82A.81.81,0,0,0,488.89,704.65Z" transform="translate(-268.85 -523.34)"></path><path class="cls-3" d="M498.25,709.71a.81.81,0,1,0-.81.81A.81.81,0,0,0,498.25,709.71Z" transform="translate(-268.85 -523.34)"></path><path class="cls-3" d="M486.79,738.55a.81.81,0,1,0-.81.81A.81.81,0,0,0,486.79,738.55Z" transform="translate(-268.85 -523.34)"></path><path class="cls-3" d="M501.32,677.28a.81.81,0,1,0-.81.81A.81.81,0,0,0,501.32,677.28Z" transform="translate(-268.85 -523.34)"></path><path class="cls-3" d="M488.89,704.65a.81.81,0,1,0-.81.82A.81.81,0,0,0,488.89,704.65Z" transform="translate(-268.85 -523.34)"></path><path class="cls-3" d="M486.79,738.55a.81.81,0,1,0-.81.81A.81.81,0,0,0,486.79,738.55Z" transform="translate(-268.85 -523.34)"></path><path class="cls-3" d="M463.17,694a.81.81,0,1,0-.81.81A.82.82,0,0,0,463.17,694Z" transform="translate(-268.85 -523.34)"></path><path class="cls-3" d="M419.88,739.93a.82.82,0,1,0-.82.81A.82.82,0,0,0,419.88,739.93Z" transform="translate(-268.85 -523.34)"></path><path class="cls-3" d="M451.14,635.74a.82.82,0,0,0-.82-.82.82.82,0,0,0-.81.82.81.81,0,0,0,.81.81A.82.82,0,0,0,451.14,635.74Z" transform="translate(-268.85 -523.34)"></path><path class="cls-3" d="M401,682.88a.81.81,0,1,0-.81.81A.81.81,0,0,0,401,682.88Z" transform="translate(-268.85 -523.34)"></path><path class="cls-3" d="M463.17,694a.81.81,0,1,0-.81.81A.82.82,0,0,0,463.17,694Z" transform="translate(-268.85 -523.34)"></path><path class="cls-3" d="M419,623.15a.81.81,0,1,0-.81.81A.81.81,0,0,0,419,623.15Z" transform="translate(-268.85 -523.34)"></path><path class="cls-3" d="M392.17,642.11a.81.81,0,1,0-.81.81A.82.82,0,0,0,392.17,642.11Z" transform="translate(-268.85 -523.34)"></path><path class="cls-3" d="M401,682.88a.81.81,0,1,0-.81.81A.81.81,0,0,0,401,682.88Z" transform="translate(-268.85 -523.34)"></path><path class="cls-3" d="M419,623.15a.81.81,0,1,0-.81.81A.81.81,0,0,0,419,623.15Z" transform="translate(-268.85 -523.34)"></path><path class="cls-3" d="M359,618.69a.81.81,0,0,0-.81-.81.81.81,0,1,0,0,1.62A.81.81,0,0,0,359,618.69Z" transform="translate(-268.85 -523.34)"></path><path class="cls-3" d="M392.17,642.11a.81.81,0,1,0-.81.81A.82.82,0,0,0,392.17,642.11Z" transform="translate(-268.85 -523.34)"></path><path class="cls-3" d="M366.1,571.19a.82.82,0,1,0-.82.81A.82.82,0,0,0,366.1,571.19Z" transform="translate(-268.85 -523.34)"></path><path class="cls-3" d="M359,618.69a.81.81,0,0,0-.81-.81.81.81,0,1,0,0,1.62A.81.81,0,0,0,359,618.69Z" transform="translate(-268.85 -523.34)"></path><path class="cls-3" d="M398.73,582.91a.81.81,0,1,0-.81.82A.81.81,0,0,0,398.73,582.91Z" transform="translate(-268.85 -523.34)"></path><path class="cls-3" d="M402.75,570.23a.82.82,0,1,0-.82.82A.82.82,0,0,0,402.75,570.23Z" transform="translate(-268.85 -523.34)"></path><path class="cls-3" d="M366.1,571.19a.82.82,0,1,0-.82.81A.82.82,0,0,0,366.1,571.19Z" transform="translate(-268.85 -523.34)"></path><path class="cls-3" d="M398.73,582.91a.81.81,0,1,0-.81.82A.81.81,0,0,0,398.73,582.91Z" transform="translate(-268.85 -523.34)"></path><path class="cls-3" d="M419,623.15a.81.81,0,1,0-.81.81A.81.81,0,0,0,419,623.15Z" transform="translate(-268.85 -523.34)"></path><path class="cls-3" d="M430.48,576.55a.81.81,0,1,0-.81.81A.81.81,0,0,0,430.48,576.55Z" transform="translate(-268.85 -523.34)"></path><path class="cls-3" d="M398.73,582.91a.81.81,0,1,0-.81.82A.81.81,0,0,0,398.73,582.91Z" transform="translate(-268.85 -523.34)"></path><path class="cls-3" d="M449.59,587.45a.81.81,0,1,0-.81.81A.81.81,0,0,0,449.59,587.45Z" transform="translate(-268.85 -523.34)"></path><path class="cls-3" d="M430.48,576.55a.81.81,0,1,0-.81.81A.81.81,0,0,0,430.48,576.55Z" transform="translate(-268.85 -523.34)"></path><path class="cls-3" d="M445.72,596.34a.81.81,0,1,0-.81.81A.81.81,0,0,0,445.72,596.34Z" transform="translate(-268.85 -523.34)"></path><path class="cls-3" d="M449.59,587.45a.81.81,0,1,0-.81.81A.81.81,0,0,0,449.59,587.45Z" transform="translate(-268.85 -523.34)"></path><path class="cls-3" d="M471.24,605.67a.81.81,0,0,0-1.62,0,.81.81,0,1,0,1.62,0Z" transform="translate(-268.85 -523.34)"></path><path class="cls-3" d="M445.72,596.34a.81.81,0,1,0-.81.81A.81.81,0,0,0,445.72,596.34Z" transform="translate(-268.85 -523.34)"></path><path class="cls-3" d="M419,623.15a.81.81,0,1,0-.81.81A.81.81,0,0,0,419,623.15Z" transform="translate(-268.85 -523.34)"></path><path class="cls-3" d="M451.14,635.74a.82.82,0,0,0-.82-.82.82.82,0,0,0-.81.82.81.81,0,0,0,.81.81A.82.82,0,0,0,451.14,635.74Z" transform="translate(-268.85 -523.34)"></path><path class="cls-3" d="M463.17,694a.81.81,0,1,0-.81.81A.82.82,0,0,0,463.17,694Z" transform="translate(-268.85 -523.34)"></path><path class="cls-3" d="M488.89,704.65a.81.81,0,1,0-.81.82A.81.81,0,0,0,488.89,704.65Z" transform="translate(-268.85 -523.34)"></path><path class="cls-3" d="M489.29,631.74a.81.81,0,1,0-.81.81A.81.81,0,0,0,489.29,631.74Z" transform="translate(-268.85 -523.34)"></path><path class="cls-3" d="M445.72,596.34a.81.81,0,1,0-.81.81A.81.81,0,0,0,445.72,596.34Z" transform="translate(-268.85 -523.34)"></path><path class="cls-3" d="M471.24,605.67a.81.81,0,0,0-1.62,0,.81.81,0,1,0,1.62,0Z" transform="translate(-268.85 -523.34)"></path><path class="cls-3" d="M451.14,635.74a.82.82,0,0,0-.82-.82.82.82,0,0,0-.81.82.81.81,0,0,0,.81.81A.82.82,0,0,0,451.14,635.74Z" transform="translate(-268.85 -523.34)"></path><path class="cls-3" d="M489.29,631.74a.81.81,0,1,0-.81.81A.81.81,0,0,0,489.29,631.74Z" transform="translate(-268.85 -523.34)"></path><path class="cls-3" d="M451.14,635.74a.82.82,0,0,0-.82-.82.82.82,0,0,0-.81.82.81.81,0,0,0,.81.81A.82.82,0,0,0,451.14,635.74Z" transform="translate(-268.85 -523.34)"></path><path class="cls-3" d="M498.64,657.42a.82.82,0,1,0-.81.81A.81.81,0,0,0,498.64,657.42Z" transform="translate(-268.85 -523.34)"></path><path class="cls-3" d="M501.32,677.28a.81.81,0,1,0-.81.81A.81.81,0,0,0,501.32,677.28Z" transform="translate(-268.85 -523.34)"></path><path class="cls-3" d="M463.17,694a.81.81,0,1,0-.81.81A.82.82,0,0,0,463.17,694Z" transform="translate(-268.85 -523.34)"></path><path class="cls-3" d="M489.29,631.74a.81.81,0,1,0-.81.81A.81.81,0,0,0,489.29,631.74Z" transform="translate(-268.85 -523.34)"></path></g><g class="cls-2"><path class="cls-4" d="M376.4,800.33h0L347.63,794h-.05L303,766.39l0,0h0v0l-19.82-28.19,0,0h0l-11.66-32.3h0v0l-1-38v0h0L277,639.06s0,0,0,0l11.29-19.79h0l18.88-22.42,0,0,27-18.69h0l16.15-6.31a.14.14,0,0,1,.17.06.13.13,0,0,1,0,.18l-6.66,6.11,12.45.07,4.44-9.72a.15.15,0,0,1,.11-.08l20.57-2.78h.06l31.18,7.4,2.24-4.15a.14.14,0,0,1,.18-.06L445,580.64h0l27.32,20.94,0,0h0l18,24.9v0h0v0l10.82,27.26a.13.13,0,0,1-.06.17l-4.61,2.48,2.08,10.14,5.26,1.68a.15.15,0,0,1,.1.14l.3,25.78h0v0l-4.72,24a.16.16,0,0,1-.08.1.15.15,0,0,1-.13,0l-2-1.17-6.47,21.54h0l0,0-19.73,26.76,0,0h0L441.75,787.4a.14.14,0,0,1-.15,0,.13.13,0,0,1-.08-.13l.18-5.3-28.47,15.91a.14.14,0,0,1-.11,0l-57-16.74,20.36,18.93a.15.15,0,0,1,0,.17A.14.14,0,0,1,376.4,800.33Zm-28.59-6.57,28.11,6.18-20.39-19-6.82-1.89Zm8.47-12.86L413,797.56l-5.87-23.45Zm51.1-6.82,5.85,23.37L434,770.52Zm27-3.61L413.7,797.3l28-15.66.41-12.21Zm-100.71,4.44,13.89,18.57.89-14.47ZM304,766.67l43.13,26.69-13.9-18.58Zm138,15.14-.17,5.19,27.35-20.38Zm.41-12.41-.4,12.08,28.28-15.81Zm-93.55,7.47,6.73,3.8L374,762l-24.31.81ZM374.44,762,356,780.66l51-6.83L403.82,761ZM348.73,778.8l5.8,1.6-5.7-3.22Zm-15.36-4.27,15.08,4.19.11-1.69-23.13-13.1Zm-7.95-10.93,23.16,13.11.85-13.91Zm-21.65,2.72,29.15,8.09-8.08-10.79ZM404.11,761l3.2,12.82,26.9-3.6,8.08-10.49Zm38.32-1-7.82,10.15,7.52-1Zm.29-.27-.31,9.38,27.74-3.71ZM300.06,748.5l3.1,17.61,21.33-2.73Zm-16.33-9.94,18.88,26.84-6.33-19.2Zm159.33,21,27.85,5.76L478.82,744Zm36.12-15.68-7.69,20.7L490.31,739Zm-182.53,2.6,5.92,17.92-2.83-16.05Zm54.52-11.8-25.93,28.69,24.21-.81ZM322.79,736,325,763.13l26-28.73Zm-24.53,1.38,26.48,25.74L322.5,736ZM300,748.13l23.91,14.56-25.76-25Zm51.48-13.74-1.73,28.11,24.58-.81,23.51-23.82Zm46.6,3.64-23.33,23.64,29-1Zm.29,0L404,760.7l38-1.26Zm.23-.21,43.83,21.51-2.9-29.56Zm58.49-11.51-14.22,33L479,743.62l8.68-23.34Zm-17.28,3.4,2.88,29.3,14.06-32.64ZM296.51,746l3.16,1.92-1.86-10.54-4.06.23Zm-12.83-7.82,12.46,7.59-2.69-8.14ZM487.8,720.66l-8.48,22.8,11.26-4.89Zm-1.15-9.92,1.35,9.34L490.78,738l6.31-21ZM272,706.49l11.35,31.44,10-.57-2.91-8.82Zm79.49,27.61,46.34,3.49-42.34-47L347.12,696Zm84.46-40.91-37.4,44.35,41-8.07Zm-48.49-23.33,10.81,67.56,37.56-44.53ZM291,729.13l2.71,8.21,4-.23Zm64.75-38.71,42.23,46.88-10.79-67.45Zm-35.06,23-22.36,23.65,24.2-1.36Zm-29.93,15,7.22,8.63,22.54-23.83-36.57-5.44Zm30.22-15,1.83,22.31,28.15-1.58Zm.09-.28,30.14,20.83-4.3-37.74ZM436.19,693l3.58,36.4,17.11-3.37,11.34-26.31ZM271.91,706l18.3,21.84-6.63-20.1Zm196.58-6.14L457.22,726l30.48-6-1.37-9.43Zm28.93,17,1.84,1.1,4.11-20.93Zm-10.82-6.5,10.57,6.35,6.71-22.33-19.18,2.91Zm-202.8-2.92,36.59,5.45-16.87-18.73L282,702.09Zm20-13.38,16.83,18.68,1.91-25.57Zm19-7-1.9,25.52,23.7-33.53Zm22.08-7.92L321.3,712.58l25.52-16.7Zm123.91,20.55,17.45,10.48-1.86-12.84Zm-196.7,6,11.35,1.68-1.72-5.22Zm5.44-16.25-5.77,16.07,9.87-3.63Zm-6.83-20.7.94,36.24,5.74-16Zm7,20.27,4.22,12.77L303.32,694l-19.56-21.71Zm202.14-23.21-11.23,33.62,15.75-2.39ZM436.4,692.77l31.78,6.67-9.28-20.82Zm22.74-14.3,9.26,20.77,11.26-33.68Zm21-12.77L484.66,697l19.15-2.9ZM345.21,679.2l1.88,16.51,8.17-5.35ZM283.94,672l19.66,21.83,19-7,2.65-35.63Zm196.2-6.75,23.68,28.42-5.51-26.85-13.23-4.23Zm18.48,1.67,5.3,25.8-.28-24.2Zm-111,2.69,48.3,23,10.2-42.35Zm58.74-19.11-10.12,42,22.53-14.17ZM345.29,678.86l10.21,11.35,31-20.3ZM270.8,668l6.78,20.57,5.94-16.54Zm54.7-16.63-2.64,35.36,21.93-8.06Zm.24-.15,19.34,27.36,41.6-9Zm120.87-.9L459,678.2l20.6-13ZM270.74,667.73l12.78,4-6.41-32Zm15.82-26.16-2.69,30.17L325,651.05Zm-9.26-2.29L283.65,671l2.63-29.49Zm116.37-4.85-6.24,35,58.43-19.31ZM325.72,651l61.06,18.36-33.47-35.57Zm27.84-17.37,33.59,35.72,6.25-35L365.68,626Zm131.87,28.84,12.82,4.09-2-9.9ZM448.66,651l31.09,14-.52-4.24Zm32.44,10.37-1,3.61,4.56-2.46Zm-1.57-.5.44,3.64.86-3.22Zm1.64.23,3.88,1.24,11.1-6-6-29.09Zm-1.68-.54,1.41.45L490,626.9l-13.67,7.31ZM446.7,650.05l32.5,10.38L476,634.35Zm44-21.88,5.76,28,4.42-2.38Zm-192.74-4.75,27.41,27.33,12.87-32.87Zm-11.33,17.86,38.33,9.46L297.6,623.5l-10.12,7.8ZM338.47,618l-12.8,32.69,27.44-17.12Zm55.25,16.18,52.08,15.62-47-44.25Zm5.5-28.65,47,44.24-.68-33.43Zm63.23,14.78-15.77,29.46L476,634.05l-1.32-10.91Zm-16.67-3.9.68,33.15,15.71-29.32ZM277.44,639l8.87,2.18.86-9.68Zm10.76-19.09-10.51,18.43,9.66-8.85Zm-.89,10-7.66,7,7.55-5.81ZM366,625.83l27.45,8.24,5.09-28.54Zm109-2.62,1.29,10.7,13.53-7.24ZM338.89,618l14.47,15.39,12-7.46Zm-51.27,11.66-.11,1.26,9.82-7.56-1.92-.84Zm.91-10.14-.87,9.72,7.47-6.84Zm186.41,3.39,14.92,3.49-17.42-24.15ZM339,617.73l26.64,8L398,605.54Zm-31.69-6.13L298,623.12,338,617.61,316.47,603.2Zm-11.67,10.7,1.89.82,1.41-3.84Zm167-2.28,12.05,2.82-2.49-20.66Zm-163.2-1.16-1.35,3.7,7.84-9.65Zm-10.76.39,6.73,2.93,3.79-3.48,7.72-21.11Zm157.15-3.16L462.3,620,472,601.87l-26.48,1.27Zm-138.43-19-7.75,21.18,7.51-6.88,7.61-9.37ZM353,586.18l-14.31,31.33,59.6-12.32ZM316.69,603l21.56,14.42L335,586.23Zm18.55-17,3.27,31.18,14.19-31.1-12-5.05Zm64.52,19.34L445.49,616l-.27-12.87ZM315,602.19l-6.42,7.89,7.69-7ZM432.9,587.3l-33.53,17.76,45.85-2.19L445,591.78Zm-79.82-1.38L398.47,605l-11.53-26.36-30.44-.16Zm56.8-7.14L399,604.93l33.52-17.76Zm-22.63-.17,11.49,26.26,10.85-26.13Zm58,13.27.22,11,26-1.25ZM315.14,602l1.31.87,18.49-17-.77-7.34Zm-7.61-5.09,7.37,4.93,18.64-22.94Zm137.74-5.3,26.13,9.67-26.35-20.18Zm-12-4.46L445,591.47,444.77,581Zm-22.48-8.32L432.88,587l11.51-6.1Zm-69.85,2,11.92,5,3.37-7.37-12.64-.07Zm-6.45-2.39.75,7.23,5.18-4.75Zm.55-.08,5.61,2.35,2.52-2.31Zm75,.14,33.23,2.06-30.44-7.22Zm2.93-5.42L443,580.19,415.1,569.08Zm-25.84,5.28,22,.12L381.73,566Zm-4.28-12.13,26.9,12.21,2.79-5.17Zm-26.21,12,30.18.17-5.45-12.45L361,568.63ZM335,578l8.41.05,6.33-5.81Z" transform="translate(-268.85 -523.34)"></path><circle class="cls-4" cx="65.43" cy="54.84" r="1.72"></circle><circle class="cls-4" cx="81.58" cy="48.53" r="1.31"></circle><path class="cls-4" d="M278.84,639.09a1.72,1.72,0,1,1-1.72-1.72A1.72,1.72,0,0,1,278.84,639.09Z" transform="translate(-268.85 -523.34)"></path><path class="cls-4" d="M272.29,667.82a1.72,1.72,0,1,1-1.72-1.72A1.72,1.72,0,0,1,272.29,667.82Z" transform="translate(-268.85 -523.34)"></path><path class="cls-4" d="M304.77,766.27a1.72,1.72,0,1,1-1.72-1.72A1.72,1.72,0,0,1,304.77,766.27Z" transform="translate(-268.85 -523.34)"></path><path class="cls-4" d="M357.32,780.85a1.72,1.72,0,1,1-1.72-1.72A1.72,1.72,0,0,1,357.32,780.85Z" transform="translate(-268.85 -523.34)"></path><circle class="cls-4" cx="56.06" cy="240.13" r="1.72"></circle><circle class="cls-4" cx="173.74" cy="236.22" r="1.72"></circle><path class="cls-4" d="M470.14,699.63a1.72,1.72,0,1,1-1.72-1.72A1.72,1.72,0,0,1,470.14,699.63Z" transform="translate(-268.85 -523.34)"></path><path class="cls-4" d="M437.75,692.84a1.72,1.72,0,1,1-1.72-1.72A1.72,1.72,0,0,1,437.75,692.84Z" transform="translate(-268.85 -523.34)"></path><circle class="cls-4" cx="173.74" cy="236.22" r="1.72"></circle><path class="cls-4" d="M399.87,737.75a1.72,1.72,0,1,1-1.72-1.72A1.72,1.72,0,0,1,399.87,737.75Z" transform="translate(-268.85 -523.34)"></path><path class="cls-4" d="M489.58,720.1a1.72,1.72,0,1,1-1.72-1.72A1.72,1.72,0,0,1,489.58,720.1Z" transform="translate(-268.85 -523.34)"></path><path class="cls-4" d="M481.64,665.23a1.72,1.72,0,1,1-1.72-1.72A1.72,1.72,0,0,1,481.64,665.23Z" transform="translate(-268.85 -523.34)"></path><circle class="cls-4" cx="235.22" cy="170.88" r="1.72"></circle><path class="cls-4" d="M470.14,699.63a1.72,1.72,0,1,1-1.72-1.72A1.72,1.72,0,0,1,470.14,699.63Z" transform="translate(-268.85 -523.34)"></path><path class="cls-4" d="M500.67,718.21a1.31,1.31,0,1,1-1.31-1.31A1.31,1.31,0,0,1,500.67,718.21Z" transform="translate(-268.85 -523.34)"></path><circle class="cls-4" cx="235.22" cy="170.88" r="1.72"></circle><circle class="cls-4" cx="221.88" cy="215.32" r="1.72"></circle><path class="cls-4" d="M489.58,720.1a1.72,1.72,0,1,1-1.72-1.72A1.72,1.72,0,0,1,489.58,720.1Z" transform="translate(-268.85 -523.34)"></path><path class="cls-4" d="M472.72,765.43a1.72,1.72,0,1,1-1.72-1.72A1.72,1.72,0,0,1,472.72,765.43Z" transform="translate(-268.85 -523.34)"></path><circle class="cls-4" cx="221.88" cy="215.32" r="1.92"></circle><circle class="cls-4" cx="173.74" cy="236.22" r="1.72"></circle><path class="cls-4" d="M472.72,765.43a1.72,1.72,0,1,1-1.72-1.72A1.72,1.72,0,0,1,472.72,765.43Z" transform="translate(-268.85 -523.34)"></path><path class="cls-4" d="M443.72,787.29a2.06,2.06,0,1,1-2.06-2.06A2.06,2.06,0,0,1,443.72,787.29Z" transform="translate(-268.85 -523.34)"></path><circle class="cls-4" cx="173.74" cy="236.22" r="2.62"></circle><path class="cls-4" d="M414.88,797.77a1.72,1.72,0,1,1-1.72-1.73A1.72,1.72,0,0,1,414.88,797.77Z" transform="translate(-268.85 -523.34)"></path><path class="cls-4" d="M472.72,765.43a1.72,1.72,0,1,1-1.72-1.72A1.72,1.72,0,0,1,472.72,765.43Z" transform="translate(-268.85 -523.34)"></path><path class="cls-4" d="M357.32,780.85a1.72,1.72,0,1,1-1.72-1.72A1.72,1.72,0,0,1,357.32,780.85Z" transform="translate(-268.85 -523.34)"></path><path class="cls-4" d="M399.87,737.75a1.72,1.72,0,1,1-1.72-1.72A1.72,1.72,0,0,1,399.87,737.75Z" transform="translate(-268.85 -523.34)"></path><path class="cls-4" d="M414.88,797.77a1.72,1.72,0,1,1-1.72-1.73A1.72,1.72,0,0,1,414.88,797.77Z" transform="translate(-268.85 -523.34)"></path><path class="cls-4" d="M358.51,780.85a2.91,2.91,0,1,1-2.91-2.91A2.91,2.91,0,0,1,358.51,780.85Z" transform="translate(-268.85 -523.34)"></path><path class="cls-4" d="M378.12,800.19a1.72,1.72,0,1,1-1.72-1.72A1.72,1.72,0,0,1,378.12,800.19Z" transform="translate(-268.85 -523.34)"></path><path class="cls-4" d="M349.38,793.87a1.72,1.72,0,1,1-1.72-1.72A1.72,1.72,0,0,1,349.38,793.87Z" transform="translate(-268.85 -523.34)"></path><path class="cls-4" d="M353.06,734.24a1.72,1.72,0,1,1-1.72-1.72A1.72,1.72,0,0,1,353.06,734.24Z" transform="translate(-268.85 -523.34)"></path><path class="cls-4" d="M399.87,737.75a1.72,1.72,0,1,1-1.72-1.72A1.72,1.72,0,0,1,399.87,737.75Z" transform="translate(-268.85 -523.34)"></path><path class="cls-4" d="M437.75,692.84a1.72,1.72,0,1,1-1.72-1.72A1.72,1.72,0,0,1,437.75,692.84Z" transform="translate(-268.85 -523.34)"></path><path class="cls-4" d="M481.64,665.23a1.72,1.72,0,1,1-1.72-1.72A1.72,1.72,0,0,1,481.64,665.23Z" transform="translate(-268.85 -523.34)"></path><path class="cls-4" d="M470.74,699.63a2.32,2.32,0,1,1-2.32-2.31A2.32,2.32,0,0,1,470.74,699.63Z" transform="translate(-268.85 -523.34)"></path><path class="cls-4" d="M448.05,650.08a1.72,1.72,0,1,1-1.72-1.72A1.72,1.72,0,0,1,448.05,650.08Z" transform="translate(-268.85 -523.34)"></path><path class="cls-4" d="M438.77,692.84A2.74,2.74,0,1,1,436,690.1,2.74,2.74,0,0,1,438.77,692.84Z" transform="translate(-268.85 -523.34)"></path><path class="cls-4" d="M389,669.61a1.72,1.72,0,1,1-1.72-1.72A1.72,1.72,0,0,1,389,669.61Z" transform="translate(-268.85 -523.34)"></path><path class="cls-4" d="M400.85,737.75a2.71,2.71,0,1,1-2.7-2.7A2.7,2.7,0,0,1,400.85,737.75Z" transform="translate(-268.85 -523.34)"></path><circle class="cls-4" cx="76.16" cy="155.43" r="1.72"></circle><path class="cls-4" d="M353.06,734.24a1.72,1.72,0,1,1-1.72-1.72A1.72,1.72,0,0,1,353.06,734.24Z" transform="translate(-268.85 -523.34)"></path><circle class="cls-4" cx="56.06" cy="240.13" r="1.72"></circle><path class="cls-4" d="M349.77,793.87a2.11,2.11,0,1,1-2.11-2.1A2.11,2.11,0,0,1,349.77,793.87Z" transform="translate(-268.85 -523.34)"></path><path class="cls-4" d="M304.77,766.27a1.72,1.72,0,1,1-1.72-1.72A1.72,1.72,0,0,1,304.77,766.27Z" transform="translate(-268.85 -523.34)"></path><circle class="cls-4" cx="56.06" cy="240.13" r="1.72"></circle><path class="cls-4" d="M322.48,713.1a1.72,1.72,0,1,1-1.72-1.72A1.72,1.72,0,0,1,322.48,713.1Z" transform="translate(-268.85 -523.34)"></path><path class="cls-4" d="M353.06,734.24a1.72,1.72,0,1,1-1.72-1.72A1.72,1.72,0,0,1,353.06,734.24Z" transform="translate(-268.85 -523.34)"></path><path class="cls-4" d="M299.65,737.24a1.72,1.72,0,1,1-1.72-1.72A1.72,1.72,0,0,1,299.65,737.24Z" transform="translate(-268.85 -523.34)"></path><circle class="cls-4" cx="56.06" cy="240.13" r="1.72"></circle><path class="cls-4" d="M284.94,738.08a1.72,1.72,0,1,1-1.72-1.72A1.72,1.72,0,0,1,284.94,738.08Z" transform="translate(-268.85 -523.34)"></path><path class="cls-4" d="M304.77,766.27a1.72,1.72,0,1,1-1.72-1.72A1.72,1.72,0,0,1,304.77,766.27Z" transform="translate(-268.85 -523.34)"></path><path class="cls-4" d="M299.65,737.24a1.72,1.72,0,1,1-1.72-1.72A1.72,1.72,0,0,1,299.65,737.24Z" transform="translate(-268.85 -523.34)"></path><path class="cls-4" d="M284.94,738.08a1.72,1.72,0,1,1-1.72-1.72A1.72,1.72,0,0,1,284.94,738.08Z" transform="translate(-268.85 -523.34)"></path><path class="cls-4" d="M273.28,705.78a1.72,1.72,0,1,1-1.72-1.72A1.72,1.72,0,0,1,273.28,705.78Z" transform="translate(-268.85 -523.34)"></path><path class="cls-4" d="M300.18,737.24a2.25,2.25,0,1,1-2.25-2.25A2.25,2.25,0,0,1,300.18,737.24Z" transform="translate(-268.85 -523.34)"></path><path class="cls-4" d="M322.48,713.1a1.72,1.72,0,1,1-1.72-1.72A1.72,1.72,0,0,1,322.48,713.1Z" transform="translate(-268.85 -523.34)"></path><path class="cls-4" d="M389,669.61a1.72,1.72,0,1,1-1.72-1.72A1.72,1.72,0,0,1,389,669.61Z" transform="translate(-268.85 -523.34)"></path><path class="cls-4" d="M448.05,650.08a1.72,1.72,0,1,1-1.72-1.72A1.72,1.72,0,0,1,448.05,650.08Z" transform="translate(-268.85 -523.34)"></path><path class="cls-4" d="M504.83,668.44a1.06,1.06,0,1,1-1.05-1.05A1,1,0,0,1,504.83,668.44Z" transform="translate(-268.85 -523.34)"></path><circle class="cls-4" cx="235.22" cy="170.88" r="1.72"></circle><path class="cls-4" d="M491.92,626.62a1.72,1.72,0,1,1-1.72-1.72A1.72,1.72,0,0,1,491.92,626.62Z" transform="translate(-268.85 -523.34)"></path><path class="cls-4" d="M448.05,650.08a1.72,1.72,0,1,1-1.72-1.72A1.72,1.72,0,0,1,448.05,650.08Z" transform="translate(-268.85 -523.34)"></path><path class="cls-4" d="M481.64,665.23a1.72,1.72,0,1,1-1.72-1.72A1.72,1.72,0,0,1,481.64,665.23Z" transform="translate(-268.85 -523.34)"></path><path class="cls-4" d="M502.74,653.88a1.72,1.72,0,1,1-1.72-1.72A1.72,1.72,0,0,1,502.74,653.88Z" transform="translate(-268.85 -523.34)"></path><path class="cls-4" d="M491.92,626.62a1.72,1.72,0,1,1-1.72-1.72A1.72,1.72,0,0,1,491.92,626.62Z" transform="translate(-268.85 -523.34)"></path><path class="cls-4" d="M481.64,665.23a1.72,1.72,0,1,1-1.72-1.72A1.72,1.72,0,0,1,481.64,665.23Z" transform="translate(-268.85 -523.34)"></path><path class="cls-4" d="M400.46,605.24a1.72,1.72,0,1,1-1.72-1.72A1.72,1.72,0,0,1,400.46,605.24Z" transform="translate(-268.85 -523.34)"></path><path class="cls-4" d="M491.92,626.62a1.72,1.72,0,1,1-1.72-1.72A1.72,1.72,0,0,1,491.92,626.62Z" transform="translate(-268.85 -523.34)"></path><path class="cls-4" d="M448.05,650.08a1.72,1.72,0,1,1-1.72-1.72A1.72,1.72,0,0,1,448.05,650.08Z" transform="translate(-268.85 -523.34)"></path><path class="cls-4" d="M446.63,580.78a1.72,1.72,0,1,1-1.72-1.73A1.72,1.72,0,0,1,446.63,580.78Z" transform="translate(-268.85 -523.34)"></path><path class="cls-4" d="M473.59,601.71a1.36,1.36,0,1,1-1.36-1.36A1.36,1.36,0,0,1,473.59,601.71Z" transform="translate(-268.85 -523.34)"></path><circle class="cls-4" cx="140.95" cy="55.25" r="1.72"></circle><path class="cls-4" d="M416.76,568.9a1.72,1.72,0,1,1-1.72-1.72A1.72,1.72,0,0,1,416.76,568.9Z" transform="translate(-268.85 -523.34)"></path><circle class="cls-4" cx="164.07" cy="63.81" r="1.04"></circle><path class="cls-4" d="M446.17,591.71a1,1,0,1,1-1-1A1,1,0,0,1,446.17,591.71Z" transform="translate(-268.85 -523.34)"></path><circle class="cls-4" cx="176.63" cy="92.81" r="1"></circle><circle class="cls-4" cx="176.54" cy="79.55" r="1"></circle><circle class="cls-4" cx="193.41" cy="96.79" r="1"></circle><circle class="cls-4" cx="205.89" cy="99.59" r="1"></circle><path class="cls-4" d="M477.25,634.12a1,1,0,1,1-1-1A1,1,0,0,1,477.25,634.12Z" transform="translate(-268.85 -523.34)"></path><circle class="cls-4" cx="210.47" cy="137.14" r="1"></circle><path class="cls-4" d="M486.13,662.5a1,1,0,1,1-1-1A1,1,0,0,1,486.13,662.5Z" transform="translate(-268.85 -523.34)"></path><circle class="cls-4" cx="190.21" cy="154.92" r="1"></circle><circle class="cls-4" cx="215.69" cy="173.88" r="1"></circle><path class="cls-4" d="M487.43,710.5a1,1,0,1,1-1-1A1,1,0,0,1,487.43,710.5Z" transform="translate(-268.85 -523.34)"></path><circle class="cls-4" cx="188.31" cy="202.68" r="1"></circle><circle class="cls-4" cx="170.89" cy="206.47" r="1"></circle><circle class="cls-4" cx="138.42" cy="250.79" r="1"></circle><circle class="cls-4" cx="134.98" cy="237.52" r="1"></circle><circle class="cls-4" cx="105.47" cy="238.59" r="1"></circle><path class="cls-4" d="M349.49,779a1,1,0,1,1-1-1A1,1,0,0,1,349.49,779Z" transform="translate(-268.85 -523.34)"></path><circle class="cls-4" cx="64.47" cy="251.38" r="1"></circle><circle class="cls-4" cx="80.82" cy="239.42" r="1"></circle><circle class="cls-4" cx="31.41" cy="224.72" r="1"></circle><circle class="cls-4" cx="27.5" cy="222.82" r="1"></circle><circle class="cls-4" cx="24.65" cy="214.17" r="1"></circle><path class="cls-4" d="M291.54,728.75a1,1,0,1,1-1-1A1,1,0,0,1,291.54,728.75Z" transform="translate(-268.85 -523.34)"></path><circle class="cls-4" cx="14.81" cy="184.31" r="1"></circle><circle class="cls-4" cx="13.04" cy="178.5" r="1"></circle><path class="cls-4" d="M323.54,735.86a1,1,0,1,1-1-1A1,1,0,0,1,323.54,735.86Z" transform="translate(-268.85 -523.34)"></path><circle class="cls-4" cx="34.72" cy="170.68" r="1"></circle><path class="cls-4" d="M278.74,688.81a1,1,0,1,1-1-1A1,1,0,0,1,278.74,688.81Z" transform="translate(-268.85 -523.34)"></path><circle class="cls-4" cx="17.76" cy="118.21" r="1"></circle><circle class="cls-4" cx="38.64" cy="87.96" r="1"></circle><path class="cls-4" d="M288.46,629.55a1,1,0,1,1-1-1A1,1,0,0,1,288.46,629.55Z" transform="translate(-268.85 -523.34)"></path><circle class="cls-4" cx="47.52" cy="79.78" r="1"></circle><path class="cls-4" d="M300.31,618.89a1,1,0,1,1-1-1A1,1,0,0,1,300.31,618.89Z" transform="translate(-268.85 -523.34)"></path><path class="cls-4" d="M353.88,586a1,1,0,1,1-1-1A1,1,0,0,1,353.88,586Z" transform="translate(-268.85 -523.34)"></path><path class="cls-4" d="M357.43,578.24a1,1,0,1,1-1-1A1,1,0,0,1,357.43,578.24Z" transform="translate(-268.85 -523.34)"></path><circle class="cls-4" cx="71.82" cy="57.74" r="1"></circle><circle class="cls-4" cx="66.37" cy="62.72" r="1"></circle><circle class="cls-4" cx="74.9" cy="54.78" r="1"></circle><path class="cls-4" d="M388,578.36a1,1,0,1,1-1-1A1,1,0,0,1,388,578.36Z" transform="translate(-268.85 -523.34)"></path><path class="cls-4" d="M366.56,626a1,1,0,1,1-1-1A1,1,0,0,1,366.56,626Z" transform="translate(-268.85 -523.34)"></path><circle class="cls-4" cx="84.5" cy="110.24" r="1"></circle><path class="cls-4" d="M394.52,634.18a1,1,0,1,1-1-1A1,1,0,0,1,394.52,634.18Z" transform="translate(-268.85 -523.34)"></path><circle class="cls-4" cx="143.87" cy="49.8" r="1"></circle><path class="cls-4" d="M446.63,580.78a1.72,1.72,0,1,1-1.72-1.73A1.72,1.72,0,0,1,446.63,580.78Z" transform="translate(-268.85 -523.34)"></path><path class="cls-4" d="M383.17,565.72a1.72,1.72,0,1,1-1.72-1.72A1.72,1.72,0,0,1,383.17,565.72Z" transform="translate(-268.85 -523.34)"></path><circle class="cls-4" cx="140.95" cy="55.25" r="1.72"></circle><path class="cls-4" d="M447.51,580.78a2.61,2.61,0,1,1-2.6-2.61A2.59,2.59,0,0,1,447.51,580.78Z" transform="translate(-268.85 -523.34)"></path><path class="cls-4" d="M400.46,605.24a1.72,1.72,0,1,1-1.72-1.72A1.72,1.72,0,0,1,400.46,605.24Z" transform="translate(-268.85 -523.34)"></path><circle class="cls-4" cx="446.33" cy="650.08" r="6.01" transform="translate(-592.17 -44.9) rotate(-42.96)"></circle><circle class="cls-4" cx="69.57" cy="94.36" r="1.72"></circle><path class="cls-4" d="M389,669.61a1.72,1.72,0,1,1-1.72-1.72A1.72,1.72,0,0,1,389,669.61Z" transform="translate(-268.85 -523.34)"></path><path class="cls-4" d="M400.46,605.24a1.72,1.72,0,1,1-1.72-1.72A1.72,1.72,0,0,1,400.46,605.24Z" transform="translate(-268.85 -523.34)"></path><path class="cls-4" d="M327.1,651a1.72,1.72,0,1,1-1.72-1.73A1.72,1.72,0,0,1,327.1,651Z" transform="translate(-268.85 -523.34)"></path><circle class="cls-4" cx="76.16" cy="155.43" r="1.72"></circle><path class="cls-4" d="M391.87,669.61a4.63,4.63,0,1,1-4.63-4.62A4.62,4.62,0,0,1,391.87,669.61Z" transform="translate(-268.85 -523.34)"></path><path class="cls-4" d="M327.1,651a1.72,1.72,0,1,1-1.72-1.73A1.72,1.72,0,0,1,327.1,651Z" transform="translate(-268.85 -523.34)"></path><path class="cls-4" d="M322.48,713.1a1.72,1.72,0,1,1-1.72-1.72A1.72,1.72,0,0,1,322.48,713.1Z" transform="translate(-268.85 -523.34)"></path><circle class="cls-4" cx="76.16" cy="155.43" r="2.35"></circle><path class="cls-4" d="M273.28,705.78a1.72,1.72,0,1,1-1.72-1.72A1.72,1.72,0,0,1,273.28,705.78Z" transform="translate(-268.85 -523.34)"></path><circle class="cls-4" cx="320.76" cy="713.1" r="5.22" transform="translate(-715.93 337.53) rotate(-76.67)"></circle><path class="cls-4" d="M285.43,672a1.72,1.72,0,1,1-1.72-1.72A1.72,1.72,0,0,1,285.43,672Z" transform="translate(-268.85 -523.34)"></path><path class="cls-4" d="M272.29,667.82a1.72,1.72,0,1,1-1.72-1.72A1.72,1.72,0,0,1,272.29,667.82Z" transform="translate(-268.85 -523.34)"></path><path class="cls-4" d="M273.28,705.78a1.72,1.72,0,1,1-1.72-1.72A1.72,1.72,0,0,1,273.28,705.78Z" transform="translate(-268.85 -523.34)"></path><path class="cls-4" d="M285.43,672a1.72,1.72,0,1,1-1.72-1.72A1.72,1.72,0,0,1,285.43,672Z" transform="translate(-268.85 -523.34)"></path><path class="cls-4" d="M327.1,651a1.72,1.72,0,1,1-1.72-1.73A1.72,1.72,0,0,1,327.1,651Z" transform="translate(-268.85 -523.34)"></path><path class="cls-4" d="M278.84,639.09a1.72,1.72,0,1,1-1.72-1.72A1.72,1.72,0,0,1,278.84,639.09Z" transform="translate(-268.85 -523.34)"></path><path class="cls-4" d="M285.43,672a1.72,1.72,0,1,1-1.72-1.72A1.72,1.72,0,0,1,285.43,672Z" transform="translate(-268.85 -523.34)"></path><path class="cls-4" d="M278.84,639.09a1.72,1.72,0,1,1-1.72-1.72A1.72,1.72,0,0,1,278.84,639.09Z" transform="translate(-268.85 -523.34)"></path><circle class="cls-4" cx="28.76" cy="99.97" r="1.72"></circle><circle class="cls-4" cx="19.55" cy="95.96" r="1.36"></circle><path class="cls-4" d="M329.29,651a3.91,3.91,0,1,1-3.91-3.91A3.91,3.91,0,0,1,329.29,651Z" transform="translate(-268.85 -523.34)"></path><circle class="cls-4" cx="69.57" cy="94.36" r="1.72"></circle><path class="cls-4" d="M400.46,605.24a1.72,1.72,0,1,1-1.72-1.72A1.72,1.72,0,0,1,400.46,605.24Z" transform="translate(-268.85 -523.34)"></path><circle class="cls-4" cx="140.95" cy="55.25" r="2.36"></circle><circle class="cls-4" cx="65.43" cy="54.84" r="1.72"></circle><circle class="cls-4" cx="69.57" cy="94.36" r="1.72"></circle><circle class="cls-4" cx="38.43" cy="73.54" r="1.18"></circle><circle class="cls-4" cx="65.43" cy="54.84" r="1.72"></circle><circle class="cls-4" cx="69.57" cy="94.36" r="1.72"></circle><path class="cls-4" d="M362.6,568.5a1.72,1.72,0,1,1-1.72-1.72A1.72,1.72,0,0,1,362.6,568.5Z" transform="translate(-268.85 -523.34)"></path><path class="cls-4" d="M401.87,605.24a3.13,3.13,0,1,1-3.13-3.13A3.13,3.13,0,0,1,401.87,605.24Z" transform="translate(-268.85 -523.34)"></path><path class="cls-4" d="M383.17,565.72a1.72,1.72,0,1,1-1.72-1.72A1.72,1.72,0,0,1,383.17,565.72Z" transform="translate(-268.85 -523.34)"></path><circle class="cls-4" cx="65.43" cy="54.84" r="2.47"></circle></g><path class="cls-5" d="M387.12,808.5c55.64,0,100.74,2,100.74,4.51s-45.1,4.5-100.74,4.5-100.73-2-100.73-4.5S331.49,808.5,387.12,808.5Z" transform="translate(-268.85 -523.34)"></path><path class="cls-6" d="M421.81,731.05l-11.07-41.18c-.31.49-.52.8-.71,1.13l-22.44,38.83a4.53,4.53,0,0,0-.27.48,1.18,1.18,0,0,1-1.3.75c-3.21,0-6.43,0-9.65,0h-7.46c-.31,0-.63,0-1.07-.08.26-.46.45-.81.65-1.15Q386.24,699,404,668.28a2.92,2.92,0,0,0,.3-2.46c-1.81-6.58-3.55-13.19-5.31-19.79-.07-.24-.16-.48-.3-.91-.28.46-.49.78-.67,1.1l-34.83,60.3q-6.79,11.78-13.58,23.56a1.77,1.77,0,0,1-1.8,1c-5.52,0-11,0-16.57,0h-1a1.24,1.24,0,0,1-.13-.19.17.17,0,0,1,0-.1,3.42,3.42,0,0,1,.17-.4L392.9,622h16.77L417,649H434.2c-.28.51-.45.86-.65,1.19q-5.26,9.18-10.56,18.34a2.43,2.43,0,0,0-.27,2.05q7.95,29.58,15.85,59.17c.1.35.19.7.28,1a.9.9,0,0,0-.07.11l-.08.07a.21.21,0,0,1-.1,0l-.88,0Z" transform="translate(-268.85 -523.34)"></path><line class="cls-7" x1="511.15" y1="47.47" x2="306.15" y2="47.47"></line><line class="cls-8" x1="314.13" y1="36.72" x2="305.3" y2="47.26"></line><line class="cls-8" x1="305.32" y1="47.31" x2="314.15" y2="57.85"></line><circle class="cls-9" cx="408.15" cy="47.47" r="17.5"></circle><path class="cls-10" d="M946.67,584.31A15.67,15.67,0,1,0,931,568.64,15.69,15.69,0,0,0,946.67,584.31Zm0-29.18a13.51,13.51,0,1,1-13.51,13.51A13.52,13.52,0,0,1,946.67,555.13Z" transform="translate(-268.85 -523.34)"></path><path class="cls-11" d="M944.06,574.11a1.11,1.11,0,0,0,1.46-.07l9.16-9.26a1.09,1.09,0,0,0-1.54-1.54l-8.46,8.57-3.62-3.06a1.08,1.08,0,0,0-1.53.14,1.1,1.1,0,0,0,.14,1.53Z" transform="translate(-268.85 -523.34)"></path><path class="cls-10" d="M977.47,559.73a11.83,11.83,0,1,0-11.83-11.83A11.85,11.85,0,0,0,977.47,559.73Zm0-22a10.2,10.2,0,1,1-10.2,10.2A10.21,10.21,0,0,1,977.47,537.7Z" transform="translate(-268.85 -523.34)"></path><path class="cls-11" d="M975.5,552a.86.86,0,0,0,1.11,0l6.91-7a.84.84,0,0,0,0-1.16.82.82,0,0,0-1.16,0L976,550.3,973.24,548a.83.83,0,0,0-1.16.11.82.82,0,0,0,.11,1.15Z" transform="translate(-268.85 -523.34)"></path><path class="cls-12" d="M1002.4,572.41a8,8,0,1,0-8-8A8,8,0,0,0,1002.4,572.41Zm0-14.95a6.92,6.92,0,1,1-6.92,6.92A6.92,6.92,0,0,1,1002.4,557.46Z" transform="translate(-268.85 -523.34)"></path><path class="cls-11" d="M1001.06,567.18a.55.55,0,0,0,.36.13.59.59,0,0,0,.39-.16l4.69-4.75a.55.55,0,0,0-.78-.78l-4.34,4.38-1.85-1.57a.56.56,0,1,0-.72.86Z" transform="translate(-268.85 -523.34)"></path><path class="cls-12" d="M1032,584.24a8,8,0,1,0-8-8A8,8,0,0,0,1032,584.24Zm0-15a6.92,6.92,0,1,1-6.92,6.92A6.92,6.92,0,0,1,1032,569.29Z" transform="translate(-268.85 -523.34)"></path><path class="cls-11" d="M1030.64,579a.53.53,0,0,0,.35.13.54.54,0,0,0,.39-.17l4.7-4.74a.56.56,0,0,0-.79-.79l-4.33,4.39-1.86-1.57a.56.56,0,0,0-.71.86Z" transform="translate(-268.85 -523.34)"></path><path class="cls-12" d="M1009.16,586.77a5.49,5.49,0,1,0-5.49-5.49A5.49,5.49,0,0,0,1009.16,586.77Zm0-10.23a4.74,4.74,0,1,1-4.74,4.74A4.74,4.74,0,0,1,1009.16,576.54Z" transform="translate(-268.85 -523.34)"></path><path class="cls-11" d="M1008.24,583.2a.39.39,0,0,0,.25.08.4.4,0,0,0,.27-.11l3.21-3.25a.39.39,0,0,0,0-.53.38.38,0,0,0-.54,0l-3,3-1.27-1.07a.38.38,0,1,0-.48.58Z" transform="translate(-268.85 -523.34)"></path><path class="cls-12" d="M1023.52,567.34a5.5,5.5,0,1,0-5.49-5.49A5.51,5.51,0,0,0,1023.52,567.34Zm0-10.23a4.74,4.74,0,1,1-4.73,4.74A4.74,4.74,0,0,1,1023.52,557.11Z" transform="translate(-268.85 -523.34)"></path><path class="cls-11" d="M1022.61,563.76a.38.38,0,0,0,.24.09.39.39,0,0,0,.27-.11l3.21-3.25a.38.38,0,0,0,0-.54.4.4,0,0,0-.54,0l-3,3-1.27-1.08a.38.38,0,0,0-.49.59Z" transform="translate(-268.85 -523.34)"></path><path class="cls-13" d="M980.43,588.46a10.56,10.56,0,1,0-10.56-10.56A10.58,10.58,0,0,0,980.43,588.46Zm0-19.67a9.11,9.11,0,1,1-9.11,9.11A9.12,9.12,0,0,1,980.43,568.79Z" transform="translate(-268.85 -523.34)"></path><path class="cls-11" d="M978.67,581.58a.72.72,0,0,0,.47.17.75.75,0,0,0,.52-.21l6.17-6.25a.73.73,0,1,0-1-1L979.09,580,976.65,578a.74.74,0,0,0-1,.09.75.75,0,0,0,.09,1Z" transform="translate(-268.85 -523.34)"></path><text class="cls-14" transform="translate(534.93 35.28)">MESSAGE</text><text class="cls-15" transform="translate(534.93 52.28)">Weighted vote<tspan x="0" y="14.4">for best proposal</tspan></text><text class="cls-16" transform="translate(13.93 10.28)">ALGORAND BLOCKCHAIN NETWORK</text><line class="cls-7" x1="511.15" y1="125.37" x2="306.15" y2="125.37"></line><line class="cls-8" x1="314.13" y1="114.83" x2="305.3" y2="125.37"></line><line class="cls-8" x1="305.32" y1="125.42" x2="314.15" y2="135.96"></line><path class="cls-17" d="M665.78,646.5" transform="translate(-268.85 -523.34)"></path><circle class="cls-9" cx="408.15" cy="125.87" r="17.5"></circle><path class="cls-10" d="M939.54,666.16A18.54,18.54,0,1,0,921,647.62,18.57,18.57,0,0,0,939.54,666.16Zm0-34.53a16,16,0,1,1-16,16A16,16,0,0,1,939.54,631.63Z" transform="translate(-268.85 -523.34)"></path><path class="cls-11" d="M936.45,654.09a1.26,1.26,0,0,0,.83.29,1.28,1.28,0,0,0,.9-.37l10.84-11a1.28,1.28,0,0,0-1.81-1.82l-10,10.14-4.28-3.63a1.29,1.29,0,0,0-1.65,2Z" transform="translate(-268.85 -523.34)"></path><path class="cls-10" d="M976,661.62a14,14,0,1,0-14-14A14,14,0,0,0,976,661.62Zm0-26.07a12.07,12.07,0,1,1-12.07,12.07A12.08,12.08,0,0,1,976,635.55Z" transform="translate(-268.85 -523.34)"></path><path class="cls-11" d="M973.67,652.5a.91.91,0,0,0,.62.22.93.93,0,0,0,.68-.28l8.19-8.27a1,1,0,0,0,0-1.37,1,1,0,0,0-1.37,0l-7.56,7.65L971,647.71a1,1,0,1,0-1.24,1.5Z" transform="translate(-268.85 -523.34)"></path><path class="cls-13" d="M1005.5,657.12a9.5,9.5,0,1,0-9.5-9.5A9.51,9.51,0,0,0,1005.5,657.12Zm0-17.69a8.19,8.19,0,1,1-8.19,8.19A8.19,8.19,0,0,1,1005.5,639.43Z" transform="translate(-268.85 -523.34)"></path><path class="cls-11" d="M1003.92,650.93a.6.6,0,0,0,.42.15.62.62,0,0,0,.46-.19l5.56-5.61a.67.67,0,0,0,0-.93.65.65,0,0,0-.93,0l-5.13,5.19-2.2-1.86a.66.66,0,0,0-.84,1Z" transform="translate(-268.85 -523.34)"></path><path class="cls-12" d="M1030.5,654.12a6.5,6.5,0,1,0-6.5-6.5A6.51,6.51,0,0,0,1030.5,654.12Zm0-12.1a5.6,5.6,0,1,1-5.6,5.6A5.6,5.6,0,0,1,1030.5,642Z" transform="translate(-268.85 -523.34)"></path><path class="cls-11" d="M1029.42,649.89a.43.43,0,0,0,.29.1.42.42,0,0,0,.31-.13l3.8-3.84a.45.45,0,0,0,0-.64.45.45,0,0,0-.63,0l-3.51,3.55-1.51-1.27a.45.45,0,0,0-.63.06.46.46,0,0,0,.06.64Z" transform="translate(-268.85 -523.34)"></path><text class="cls-14" transform="translate(534.93 118.5)">MESSAGE</text><text class="cls-15" transform="translate(534.93 135.5)">Weighted vote<tspan x="0" y="14.4">for best proposal</tspan></text><line class="cls-7" x1="306.15" y1="273.16" x2="511.15" y2="273.16"></line><line class="cls-8" x1="503.16" y1="262.62" x2="511.99" y2="273.16"></line><line class="cls-8" x1="511.97" y1="273.2" x2="503.15" y2="283.75"></line><line class="cls-18" x1="123.09" y1="226.66" x2="123.09" y2="325.26"></line><line class="cls-8" x1="131.15" y1="317.28" x2="123.09" y2="326.1"></line><line class="cls-8" x1="123.05" y1="326.09" x2="114.99" y2="317.26"></line><path class="cls-17" d="M689.22,794.28" transform="translate(-268.85 -523.34)"></path><circle class="cls-9" cx="408.15" cy="272.66" r="17.5"></circle><path class="cls-10" d="M939.54,815A18.55,18.55,0,1,0,921,796.4,18.58,18.58,0,0,0,939.54,815Zm0-34.54a16,16,0,1,1-16,16A16,16,0,0,1,939.54,780.41Z" transform="translate(-268.85 -523.34)"></path><path class="cls-19" d="M936.45,802.87a1.26,1.26,0,0,0,.83.29,1.24,1.24,0,0,0,.9-.37l10.84-11a1.28,1.28,0,1,0-1.81-1.81l-10,10.13-4.28-3.62a1.29,1.29,0,0,0-1.65,2Z" transform="translate(-268.85 -523.34)"></path><text class="cls-14" transform="translate(534.93 264.28)">MESSAGE</text><text class="cls-15" transform="translate(534.93 281.28)">When quorum<tspan x="0" y="14.4">reached</tspan></text><line class="cls-7" x1="306.15" y1="201.34" x2="511.15" y2="201.34"></line><line class="cls-8" x1="503.16" y1="190.8" x2="511.99" y2="201.34"></line><line class="cls-8" x1="511.97" y1="201.39" x2="503.15" y2="211.93"></line><circle class="cls-9" cx="408.15" cy="201.37" r="17.5"></circle><circle class="cls-20" cx="678.08" cy="202.34" r="18.58"></circle><circle class="cls-21" cx="677.65" cy="183.75" r="7.78"></circle><circle class="cls-21" cx="694.94" cy="201.9" r="7.78"></circle><circle class="cls-21" cx="678.51" cy="218.33" r="7.78"></circle><circle class="cls-21" cx="660.36" cy="200.17" r="7.78"></circle><path class="cls-12" d="M946.5,715.22a8.21,8.21,0,1,0-8.21-8.21A8.22,8.22,0,0,0,946.5,715.22Zm0-15.29a7.08,7.08,0,1,1-7.08,7.08A7.09,7.09,0,0,1,946.5,699.93Z" transform="translate(-268.85 -523.34)"></path><path class="cls-12" d="M945.13,709.88a.6.6,0,0,0,.77,0l4.8-4.86a.57.57,0,0,0,0-.8.58.58,0,0,0-.81,0l-4.43,4.49-1.9-1.61a.57.57,0,0,0-.73.88Z" transform="translate(-268.85 -523.34)"></path><path class="cls-12" d="M929.21,731.65a8.22,8.22,0,1,0-8.21-8.22A8.22,8.22,0,0,0,929.21,731.65Zm0-15.3a7.08,7.08,0,1,1-7.08,7.08A7.09,7.09,0,0,1,929.21,716.35Z" transform="translate(-268.85 -523.34)"></path><path class="cls-12" d="M927.84,726.3a.57.57,0,0,0,.77,0l4.8-4.85a.57.57,0,0,0-.8-.8l-4.44,4.48-1.9-1.6a.57.57,0,0,0-.8.07.58.58,0,0,0,.07.8Z" transform="translate(-268.85 -523.34)"></path><path class="cls-12" d="M947.36,749.8a8.22,8.22,0,1,0-8.21-8.21A8.23,8.23,0,0,0,947.36,749.8Zm0-15.29a7.08,7.08,0,1,1-7.08,7.08A7.08,7.08,0,0,1,947.36,734.51Z" transform="translate(-268.85 -523.34)"></path><path class="cls-12" d="M946,744.45a.55.55,0,0,0,.36.13.59.59,0,0,0,.4-.16l4.8-4.86a.57.57,0,0,0-.8-.8l-4.44,4.49-1.89-1.61a.59.59,0,0,0-.81.07.58.58,0,0,0,.08.81Z" transform="translate(-268.85 -523.34)"></path><path class="cls-12" d="M963.79,733.37a8.21,8.21,0,1,0-8.21-8.21A8.22,8.22,0,0,0,963.79,733.37Zm0-15.29a7.08,7.08,0,1,1-7.08,7.08A7.09,7.09,0,0,1,963.79,718.08Z" transform="translate(-268.85 -523.34)"></path><path class="cls-12" d="M962.42,728a.57.57,0,0,0,.36.13.58.58,0,0,0,.41-.17l4.8-4.85a.57.57,0,1,0-.81-.81l-4.43,4.49-1.9-1.6a.57.57,0,1,0-.73.87Z" transform="translate(-268.85 -523.34)"></path><text class="cls-14" transform="translate(534.93 198.18)">RECEIVE</text><text class="cls-15" transform="translate(534.93 215.18)">Other node votes</text><rect class="cls-20" x="300.15" y="333.66" width="38" height="38"></rect><rect class="cls-20" x="308.65" y="343.16" width="20" height="20"></rect><rect class="cls-12" x="311.15" y="345.66" width="15" height="15"></rect><rect class="cls-20" x="234.48" y="333.66" width="38" height="38"></rect><rect class="cls-20" x="242.98" y="343.16" width="20" height="20"></rect><rect class="cls-12" x="245.48" y="345.66" width="15" height="15"></rect><rect class="cls-20" x="168.81" y="333.66" width="38" height="38"></rect><rect class="cls-20" x="177.31" y="343.16" width="20" height="20"></rect><rect class="cls-12" x="179.81" y="345.66" width="15" height="15"></rect><rect class="cls-22" x="103.15" y="333.66" width="38" height="38"></rect><rect class="cls-20" x="111.65" y="343.16" width="20" height="20"></rect><rect class="cls-12" x="114.15" y="345.66" width="15" height="15"></rect><polygon class="cls-11" points="272.48 349.3 277.65 352.31 295.5 352.31 300.15 349.3 300.15 354.82 272.48 354.82 272.48 349.3"></polygon><polygon class="cls-11" points="272.48 358.66 277.65 355.64 295.5 355.64 300.15 358.66 300.15 353.13 272.48 353.13 272.48 358.66"></polygon><path class="cls-11" d="M556,872.09" transform="translate(-268.85 -523.34)"></path><polygon class="cls-11" points="206.48 349.3 211.65 352.31 229.5 352.31 234.15 349.3 234.15 354.82 206.48 354.82 206.48 349.3"></polygon><polygon class="cls-11" points="206.48 358.66 211.65 355.64 229.5 355.64 234.15 358.66 234.15 353.13 206.48 353.13 206.48 358.66"></polygon><path class="cls-11" d="M490,872.09" transform="translate(-268.85 -523.34)"></path><polygon class="cls-11" points="141.48 349.3 146.65 352.31 164.5 352.31 169.15 349.3 169.15 354.82 141.48 354.82 141.48 349.3"></polygon><polygon class="cls-11" points="141.48 358.66 146.65 355.64 164.5 355.64 169.15 358.66 169.15 353.13 141.48 353.13 141.48 358.66"></polygon><path class="cls-11" d="M425,872.09" transform="translate(-268.85 -523.34)"></path><rect class="cls-23" x="300.15" y="372.59" width="38" height="25.23"></rect><rect class="cls-23" x="308.65" y="378.9" width="20" height="13.28"></rect><rect class="cls-24" x="311.15" y="380.56" width="15" height="9.96"></rect><rect class="cls-23" x="234.48" y="372.59" width="38" height="25.23"></rect><rect class="cls-23" x="242.98" y="378.9" width="20" height="13.28"></rect><rect class="cls-24" x="245.48" y="380.56" width="15" height="9.96"></rect><rect class="cls-23" x="168.81" y="372.59" width="38" height="25.23"></rect><rect class="cls-23" x="177.31" y="378.9" width="20" height="13.28"></rect><rect class="cls-24" x="179.81" y="380.56" width="15" height="9.96"></rect><rect class="cls-25" x="103.15" y="372.59" width="38" height="25.23"></rect><rect class="cls-23" x="111.65" y="378.9" width="20" height="13.28"></rect><rect class="cls-24" x="114.15" y="380.56" width="15" height="9.96"></rect><g class="cls-26"><polygon class="cls-11" points="272.48 382.97 277.65 384.97 295.5 384.97 300.15 382.97 300.15 386.64 272.48 386.64 272.48 382.97"></polygon><polygon class="cls-11" points="272.48 389.19 277.65 387.19 295.5 387.19 300.15 389.19 300.15 385.52 272.48 385.52 272.48 389.19"></polygon><path class="cls-11" d="M556,906" transform="translate(-268.85 -523.34)"></path></g><g class="cls-26"><polygon class="cls-11" points="206.48 382.97 211.65 384.97 229.5 384.97 234.15 382.97 234.15 386.64 206.48 386.64 206.48 382.97"></polygon><polygon class="cls-11" points="206.48 389.19 211.65 387.19 229.5 387.19 234.15 389.19 234.15 385.52 206.48 385.52 206.48 389.19"></polygon><path class="cls-11" d="M490,906" transform="translate(-268.85 -523.34)"></path></g><g class="cls-26"><polygon class="cls-11" points="141.48 382.97 146.65 384.97 164.5 384.97 169.15 382.97 169.15 386.64 141.48 386.64 141.48 382.97"></polygon><polygon class="cls-11" points="141.48 389.19 146.65 387.19 164.5 387.19 169.15 389.19 169.15 385.52 141.48 385.52 141.48 389.19"></polygon><path class="cls-11" d="M425,906" transform="translate(-268.85 -523.34)"></path></g><path class="cls-11" d="M555.17,866.18" transform="translate(-268.85 -523.34)"></path><polygon class="cls-12" points="409.15 39.66 410.65 47.16 402.23 47.16 407.65 56.16 405.1 48.66 413.32 48.66 409.15 39.66"></polygon><polygon class="cls-12" points="409.15 117.66 410.65 125.16 402.23 125.16 407.65 134.16 405.1 126.66 413.32 126.66 409.15 117.66"></polygon><polygon class="cls-12" points="409.15 192.66 410.65 200.16 402.23 200.16 407.65 209.16 405.1 201.66 413.32 201.66 409.15 192.66"></polygon><polygon class="cls-12" points="409.15 264.66 410.65 272.16 402.23 272.16 407.65 281.16 405.1 273.66 413.32 273.66 409.15 264.66"></polygon><rect class="cls-27" x="78.65" y="371.66" width="277" height="32"></rect><text class="cls-28" transform="translate(719.23 369.05)">LeewayHertz</text><text class="cls-16" transform="translate(178.93 318.28)">BLOCKCHAIN</text></g></g></svg> 